<mxfile host="app.diagrams.net" agent="Mozilla/5.0 (Windows NT 10.0; Win64; x64) AppleWebKit/537.36 (KHTML, like Gecko) Chrome/128.0.0.0 Safari/537.36" version="24.7.10">
  <diagram name="Page-1" id="rgVQupRmkwMiC2pf73yW">
    <mxGraphModel dx="1036" dy="515" grid="1" gridSize="10" guides="1" tooltips="1" connect="1" arrows="1" fold="1" page="1" pageScale="1" pageWidth="827" pageHeight="1169" math="0" shadow="0">
      <root>
        <mxCell id="0" />
        <mxCell id="1" parent="0" />
        <mxCell id="2_3dd04O2ZOOgzmm2a9g-1" value="&lt;b&gt;&lt;font style=&quot;font-size: 16px;&quot;&gt;Level 0&lt;/font&gt;&lt;/b&gt;" style="text;html=1;align=center;verticalAlign=middle;whiteSpace=wrap;rounded=0;" parent="1" vertex="1">
          <mxGeometry x="40" y="50" width="60" height="30" as="geometry" />
        </mxCell>
        <mxCell id="2_3dd04O2ZOOgzmm2a9g-5" value="&lt;b&gt;&lt;font style=&quot;font-size: 16px;&quot;&gt;Level 1&lt;/font&gt;&lt;/b&gt;" style="text;html=1;align=center;verticalAlign=middle;whiteSpace=wrap;rounded=0;" parent="1" vertex="1">
          <mxGeometry x="30" y="340" width="60" height="30" as="geometry" />
        </mxCell>
        <mxCell id="2_3dd04O2ZOOgzmm2a9g-6" value="&lt;b&gt;&lt;font style=&quot;font-size: 16px;&quot;&gt;Level 2&lt;/font&gt;&lt;/b&gt;" style="text;html=1;align=center;verticalAlign=middle;whiteSpace=wrap;rounded=0;" parent="1" vertex="1">
          <mxGeometry x="20" y="710" width="60" height="30" as="geometry" />
        </mxCell>
        <mxCell id="2_3dd04O2ZOOgzmm2a9g-7" value="&lt;b&gt;&lt;font style=&quot;font-size: 15px;&quot;&gt;User&lt;/font&gt;&lt;/b&gt;" style="rounded=0;whiteSpace=wrap;html=1;" parent="1" vertex="1">
          <mxGeometry x="20" y="182" width="120" height="60" as="geometry" />
        </mxCell>
        <mxCell id="2_3dd04O2ZOOgzmm2a9g-10" style="edgeStyle=orthogonalEdgeStyle;rounded=0;orthogonalLoop=1;jettySize=auto;html=1;entryX=1;entryY=0.75;entryDx=0;entryDy=0;exitX=0.037;exitY=0.697;exitDx=0;exitDy=0;exitPerimeter=0;" parent="1" source="2_3dd04O2ZOOgzmm2a9g-8" target="2_3dd04O2ZOOgzmm2a9g-7" edge="1">
          <mxGeometry relative="1" as="geometry">
            <mxPoint x="330" y="227" as="sourcePoint" />
          </mxGeometry>
        </mxCell>
        <mxCell id="2_3dd04O2ZOOgzmm2a9g-8" value="&lt;b&gt;&lt;font style=&quot;font-size: 15px;&quot;&gt;System&lt;/font&gt;&lt;/b&gt;" style="ellipse;whiteSpace=wrap;html=1;" parent="1" vertex="1">
          <mxGeometry x="340" y="172" width="120" height="80" as="geometry" />
        </mxCell>
        <mxCell id="2_3dd04O2ZOOgzmm2a9g-9" style="edgeStyle=orthogonalEdgeStyle;rounded=0;orthogonalLoop=1;jettySize=auto;html=1;exitX=1;exitY=0.25;exitDx=0;exitDy=0;entryX=0.027;entryY=0.312;entryDx=0;entryDy=0;entryPerimeter=0;" parent="1" source="2_3dd04O2ZOOgzmm2a9g-7" target="2_3dd04O2ZOOgzmm2a9g-8" edge="1">
          <mxGeometry relative="1" as="geometry">
            <mxPoint x="340" y="197" as="targetPoint" />
          </mxGeometry>
        </mxCell>
        <mxCell id="2_3dd04O2ZOOgzmm2a9g-11" value="&lt;b&gt;Typing a message&lt;/b&gt;" style="text;html=1;align=center;verticalAlign=middle;resizable=0;points=[];autosize=1;strokeColor=none;fillColor=none;" parent="1" vertex="1">
          <mxGeometry x="175" y="167" width="130" height="30" as="geometry" />
        </mxCell>
        <mxCell id="2_3dd04O2ZOOgzmm2a9g-12" value="&lt;b&gt;Appearing Characters on Editor&lt;/b&gt;" style="text;html=1;align=center;verticalAlign=middle;resizable=0;points=[];autosize=1;strokeColor=none;fillColor=none;" parent="1" vertex="1">
          <mxGeometry x="147" y="230" width="200" height="30" as="geometry" />
        </mxCell>
      </root>
    </mxGraphModel>
  </diagram>
</mxfile>
